<svg width="1440" height="498" viewBox="0 0 1440 498" fill="none" xmlns="http://www.w3.org/2000/svg">
<rect y="57" width="1440" height="439" fill="#C5DBFA"/>
<path d="M73.1793 370L0 497H1440L1380.13 370H73.1793Z" fill="#2777E1" stroke="#2777E1"/>
<path fill-rule="evenodd" clip-rule="evenodd" d="M325.476 79.3681C332.223 83.4333 338.853 85.3975 341.965 84.5957C349.768 82.5851 350.486 54.0497 344.448 42.8001C338.41 31.5506 307.37 26.6473 305.806 48.9362C305.263 56.672 308.512 63.5757 313.313 69.209L304.704 109.318H329.711L325.476 79.3681Z" fill="#57331F"/>
<path fill-rule="evenodd" clip-rule="evenodd" d="M326.726 51.3978C328.889 48.1784 330.966 45.7228 333.667 44.2968C344.661 44.4704 345.948 42.5004 345.948 35.8605C344.172 34.5904 337.907 32.4518 330.891 31.8503C327.311 30.8264 323.071 31.019 318.987 32.7269C313.945 34.1569 309.675 37.2367 307.789 43.0025C300.966 54.7724 306.145 67.0245 313.124 71.2098C314.982 69.0098 316.603 66.8778 318.049 64.8368C316.887 63.7021 316.166 62.1185 316.166 60.3664C316.166 56.9151 318.965 54.1173 322.418 54.1173C322.671 54.1173 322.922 54.1324 323.168 54.1618C323.323 58.4768 323.962 73.0756 325.642 78.1466C327.622 84.125 339.176 85.5929 343.206 85.5929C346.686 85.5929 346.568 82.2984 346.483 79.9373C346.47 79.5973 346.459 79.2766 346.459 78.9879C346.459 78.3847 345.674 78.3863 344.787 78.3881C343.636 78.3903 342.312 78.393 342.312 77.0724C342.312 75.6329 344.303 74.5287 346.083 73.5406C347.194 72.9241 348.224 72.3529 348.638 71.7736C349.944 69.946 350.384 67.481 348.414 67.481C347.337 67.481 345.859 68.1017 344.081 68.8485C341.397 69.9759 338.029 71.3905 334.323 71.3905C328.2 71.3905 326.744 51.6443 326.726 51.3978Z" fill="#191847"/>
<path fill-rule="evenodd" clip-rule="evenodd" d="M302.621 195.764L353.761 325.148L388.061 434.531H401.605L349.168 195.764L302.621 195.764Z" fill="#3D2216"/>
<path fill-rule="evenodd" clip-rule="evenodd" d="M292.323 195.764C291.778 241.23 283.836 302.443 282.567 305.278C281.299 308.112 194.963 377.36 194.963 377.36L204.291 387.339C204.291 387.339 306.16 327.967 310.874 320.048C315.588 312.13 330.935 239.26 343.256 195.764H292.323Z" fill="#57331F"/>
<path fill-rule="evenodd" clip-rule="evenodd" d="M196.438 375.405C196.113 374.281 194.929 373.611 193.828 374.011C191.737 374.772 188.613 376.026 187.24 377.178C185.081 378.989 181.543 383.182 181.543 383.182C183.644 385.686 219.318 428.182 219.318 428.182C219.318 428.182 226.591 425.07 223.882 420.903C221.172 416.736 219.446 413.924 219.446 413.924L211.205 385.143C211.05 384.601 210.478 384.295 209.941 384.465L205.509 385.87C205.509 385.87 200.939 383.741 199.103 381.554C197.969 380.202 197.007 377.372 196.438 375.405Z" fill="#E4E4E4"/>
<path fill-rule="evenodd" clip-rule="evenodd" d="M385.319 428.281C384.249 427.807 382.976 428.283 382.575 429.383C381.813 431.473 380.766 434.672 380.766 436.464C380.766 439.281 381.706 444.686 381.706 444.686C384.975 444.686 440.473 444.686 440.473 444.686C440.473 444.686 442.764 437.116 437.828 436.512C432.893 435.909 429.629 435.422 429.629 435.422L402.274 423.233C401.76 423.003 401.158 423.244 400.943 423.765L399.171 428.062C399.171 428.062 394.602 430.193 391.745 430.193C389.98 430.193 387.192 429.109 385.319 428.281Z" fill="#E4E4E4"/>
<path fill-rule="evenodd" clip-rule="evenodd" d="M337.005 423.265L401.402 416.279L353.676 195.764H295.998L337.005 423.265Z" fill="#69A1AC"/>
<path fill-rule="evenodd" clip-rule="evenodd" d="M208.283 361.261L250.523 411.239C250.523 411.239 317.26 338.38 328.339 316.159C339.417 293.937 348.257 195.764 348.257 195.764H283.322C283.322 195.764 278.493 282.132 276.812 286.151C275.131 290.17 208.283 361.261 208.283 361.261Z" fill="#89C5CC"/>
<path fill-rule="evenodd" clip-rule="evenodd" d="M231.141 242.536C234.194 236.344 249.45 156.654 249.45 156.654L272.266 156.74C272.266 156.74 246.2 241.155 244.593 245.137C242.505 250.31 246.051 257.825 248.456 262.921C248.828 263.709 249.173 264.439 249.465 265.094C246.128 266.587 244.525 264.783 242.835 262.881C240.927 260.732 238.907 258.459 234.152 260.67C232.315 261.525 230.577 262.535 228.879 263.521C223.013 266.93 217.624 270.061 210.293 265.539C209.131 264.822 207.857 262.123 210.934 260.014C218.601 254.76 229.648 245.563 231.141 242.536ZM423.3 211.486L393.784 182.703L383.98 199.659L414.673 217.747C422.369 229.866 426.889 235.102 428.233 233.455C429.366 232.067 428.847 230.546 428.368 229.145C427.996 228.053 427.648 227.035 428.126 226.208C429.216 224.322 435.379 225.402 441.183 226.678C446.986 227.953 445.644 225.103 444.41 223.616C438.925 219.191 431.888 215.147 423.3 211.486Z" fill="#57331F"/>
<path fill-rule="evenodd" clip-rule="evenodd" d="M318.974 91.9577L327.984 90.4129C342.177 140.564 415.101 174.749 419.578 193.496C421.22 200.372 416.27 203.847 418.827 205.941L407.116 214.511C405.132 212.198 400.9 216.429 392.063 213.469C383.225 210.51 318.974 151.341 318.974 91.9577Z" fill="#191847"/>
<path fill-rule="evenodd" clip-rule="evenodd" d="M302.782 81.4756C300.578 81.3216 298.667 82.9832 298.513 85.187L298.074 91.4535C281.118 104.497 239.093 143.472 228.142 216.028C226.991 223.65 229.072 227.732 230.734 230.994C231.871 233.225 232.812 235.073 232.39 237.406L247.717 241.635C247.717 239.912 249.648 238.601 252.14 236.91C255.764 234.451 260.573 231.188 262.351 224.684C264.036 218.518 266.504 210.818 269.452 202.251C269.731 213.597 271.883 224.031 276.572 232.672C288.27 254.233 355.873 230.588 362.936 208.593C366.705 196.856 361.357 187.003 354.284 173.97C345.306 157.428 333.549 135.764 334.13 98.6249L334.892 87.7298C335.046 85.5261 333.385 83.6147 331.181 83.4606L302.782 81.4756Z" fill="#2F3676"/>
<path fill-rule="evenodd" clip-rule="evenodd" d="M1128.58 81.4283C1121.67 85.2114 1114.96 86.8974 1111.88 85.9641C1104.17 83.6237 1104.66 55.0428 1111.17 44.0416C1117.67 33.0403 1148.89 29.4418 1149.52 51.8085C1149.73 59.5713 1146.19 66.3419 1141.16 71.776L1148.07 112.269L1123.08 111.215L1128.58 81.4283Z" fill="#915B3C"/>
<path fill-rule="evenodd" clip-rule="evenodd" d="M1125.95 31.6694C1129.27 31.2677 1138.15 31.2698 1139.79 31.339C1140.83 31.3831 1141.95 31.6698 1142.61 30.7354C1143.15 29.9703 1143.02 28.6324 1143.21 27.7261C1143.43 26.6733 1143.73 25.6373 1144.02 24.604C1144.87 21.6638 1146.07 18.8835 1147.7 16.2943C1150.76 11.4366 1155.1 7.71341 1160.47 5.66672C1166.4 3.40689 1173.01 3.11096 1179.25 3.88311C1185.93 4.70928 1191.9 7.1795 1198.14 9.53019C1204.09 11.7702 1210.37 12.8181 1216.72 12.1142C1223.11 11.4051 1228.06 8.16028 1233.56 5.11439C1239.18 1.99613 1245.55 0.069726 1252.01 0.846746C1258.05 1.57222 1263.52 4.30985 1268.39 7.86373C1272.94 11.1888 1276.64 15.1147 1278.6 20.5027C1280.71 26.2986 1280.44 32.5518 1276.37 37.4239C1270.47 44.4859 1260 45.9353 1251.37 45.3833C1246.37 45.0644 1241.5 43.9441 1236.85 42.0837C1230.65 39.6024 1225.37 35.6174 1219.62 32.322C1216.91 30.7756 1214.11 29.4807 1211.15 28.5086C1208.28 27.5648 1205.43 27.0675 1202.73 28.7134C1199.87 30.4545 1197.3 32.175 1194.06 33.2041C1190.96 34.1915 1187.7 34.6794 1184.45 34.5171C1178.12 34.2013 1171.96 31.9639 1165.87 30.3823C1160.9 29.0927 1155.59 27.792 1150.43 28.613C1148.28 28.9556 1145.13 29.7173 1144.26 31.9036C1157.13 34.8024 1161.54 51.0678 1157.39 62.6965C1155.15 68.973 1142.98 75.9074 1138.51 72.3697C1135.68 70.1284 1137.57 67.4225 1138.79 65.6352C1141.14 62.2125 1142.08 57.7287 1138.12 55.1098C1134.7 52.8511 1130.8 57.7083 1130.73 57.6998C1129.77 57.5831 1121.64 52.5156 1116.19 45.3913C1110.51 45.4886 1109.81 41.7149 1111.29 38.7154C1112.77 35.7159 1121.37 32.225 1125.95 31.6694Z" fill="#191847"/>
<path fill-rule="evenodd" clip-rule="evenodd" d="M1147.21 198.326L1109.05 329.98L1091.1 428.829H1073.08L1091.06 198.326H1147.21Z" fill="#784931"/>
<path fill-rule="evenodd" clip-rule="evenodd" d="M1164.37 198.326C1161.7 266.72 1162.75 304.024 1163.35 310.237C1163.95 316.451 1167.33 358.068 1190.39 430.915H1171.65C1141.11 361.03 1130.45 319.414 1126.95 310.237C1123.45 301.061 1113.1 263.757 1098 198.326H1164.37Z" fill="#915B3C"/>
<path fill-rule="evenodd" clip-rule="evenodd" d="M1148.03 198.326C1138.11 243.628 1120.93 315.943 1096.52 415.27H1070.17C1068.22 313.32 1076.5 246.221 1090.84 198.326H1148.03Z" fill="#69A1AC"/>
<path fill-rule="evenodd" clip-rule="evenodd" d="M1164.5 198.326C1161.89 266.72 1168.65 334.101 1189.59 416.335H1161.47C1130.88 347.493 1108.95 280.445 1093.97 198.326H1164.5Z" fill="#C5CFD6"/>
<path fill-rule="evenodd" clip-rule="evenodd" d="M1193.06 444.474L1192.1 429.035C1192.06 428.395 1191.44 427.957 1190.81 428.092C1181.78 430.04 1169.28 425.7 1169.28 425.7C1156.68 434.634 1138.48 438.71 1132.21 439.907C1131.03 440.133 1130.27 441.324 1130.6 442.481L1132.05 447.603H1169.28H1190.99L1193.06 444.474Z" fill="#191847"/>
<path fill-rule="evenodd" clip-rule="evenodd" d="M1095.12 444.474L1094.16 429.035C1094.12 428.395 1093.5 427.957 1092.87 428.092C1083.84 430.04 1071.33 425.7 1071.33 425.7C1058.73 434.634 1040.54 438.71 1034.27 439.907C1033.08 440.133 1032.33 441.324 1032.66 442.481L1034.11 447.603H1071.33H1093.05L1095.12 444.474Z" fill="#191847"/>
<path fill-rule="evenodd" clip-rule="evenodd" d="M1026.69 210.494L1059.92 186.052L1067.27 204.23L1034.36 217.903C1025.06 228.851 1019.86 233.416 1018.75 231.596C1017.82 230.062 1018.55 228.626 1019.22 227.303C1019.74 226.272 1020.22 225.31 1019.87 224.424C1019.05 222.402 1012.8 222.617 1006.87 223.075C1000.95 223.533 1002.67 220.893 1004.1 219.59C1010.15 215.964 1017.68 212.932 1026.69 210.494ZM1201 253.484C1197.95 247.284 1187.53 186.853 1187.53 186.853L1165.76 186.946C1165.76 186.946 1185.94 252.106 1187.55 256.093C1189.64 261.272 1186.1 268.799 1183.69 273.903C1183.32 274.693 1182.98 275.424 1182.69 276.08C1186.02 277.574 1187.63 275.766 1189.32 273.861C1191.22 271.709 1193.24 269.432 1198 271.645C1199.84 272.5 1201.57 273.51 1203.27 274.498C1209.14 277.909 1214.53 281.043 1221.86 276.513C1223.02 275.794 1224.29 273.091 1221.22 270.98C1213.55 265.721 1202.5 256.515 1201 253.484Z" fill="#915B3C"/>
<path fill-rule="evenodd" clip-rule="evenodd" d="M1125.62 95.4149L1116.61 93.871C1083.19 122.789 1069.48 178.328 1028.51 207.76L1038.38 219.994C1109.46 211.16 1127.06 143.416 1125.62 95.4149Z" fill="#1F28CF"/>
<path fill-rule="evenodd" clip-rule="evenodd" d="M1164.93 208.743C1164.93 208.743 1110.75 208.761 1085.21 208.769C1081.57 208.77 1082.26 203.505 1082.78 200.847C1088.85 170.181 1112.56 137.118 1112.55 93.4675L1135.54 89.8503C1154.57 120.465 1161.16 158.163 1164.93 208.743Z" fill="#DDE3E9"/>
<path fill-rule="evenodd" clip-rule="evenodd" d="M1173.91 230.643C1177.49 239.255 1181.01 246.77 1184.32 252.542L1201.42 252.536C1203.24 193 1180.7 147.197 1161.85 119.58C1166.03 119.28 1169.81 117.526 1172.2 113.213C1180.6 98.0292 1177.56 89.6719 1168.58 86.9275C1163.64 85.4184 1158.99 86.4511 1153.43 87.6874C1148.88 88.699 1143.72 89.8468 1137.28 89.8497C1137.28 89.8497 1137.28 89.8497 1137.27 89.8497C1136.65 89.8499 1136.08 89.892 1135.57 89.9722L1127.94 90.4106C1127.94 90.4106 1096.99 195.525 1110.89 230.664L1173.91 230.643Z" fill="#2B44FF"/>
<path fill-rule="evenodd" clip-rule="evenodd" d="M1173.91 230.643C1169.2 219.342 1164.38 206.152 1159.73 192.53C1158.01 207.534 1155.14 222.603 1150.35 230.65L1173.91 230.643Z" fill="black" fill-opacity="0.1"/>
<path d="M583.5 268H872.5L917.5 311.5V319H907V369.5V420H896.5V319H867.5V388H858.5V319H599V388H591V319H570.5V420H560V319H547V311.5L583.5 268Z" fill="#F7BB62"/>
<path d="M917.5 311.5L872.5 268H583.5L547 311.5M917.5 311.5V319H907M917.5 311.5H881.5H547M547 311.5V319H560M907 319H896.5M907 319V369.5V420H896.5V319M896.5 319H867.5M560 319V420H570.5V319M560 319H570.5M570.5 319H591M591 319V388H599V319M591 319H599M599 319H858.5M867.5 319V388H858.5V319M867.5 319H858.5" stroke="#C89C2B"/>
<path d="M782.175 171.577H773.845V267.899L782.175 251.481C786.756 251.481 790.505 247.787 790.505 243.272V179.787C790.505 175.272 786.756 171.577 782.175 171.577Z" fill="#3D5168"/>
<path d="M782.175 179.787C782.175 175.272 778.426 171.577 773.845 171.577H685.825C681.243 171.577 677.495 175.272 677.495 179.787V243.272C677.495 247.787 681.243 251.481 685.825 251.481L734 267.899L773.845 251.481C778.426 251.481 782.175 247.787 782.175 243.272L761.35 211.529L782.175 179.787Z" fill="#57697D"/>
<path d="M785.629 267.899V288.423H794.67C799.271 288.423 803 284.747 803 280.213L785.629 267.899Z" fill="#3D5168"/>
<path d="M686.818 272.004L665 280.213C665 284.747 668.729 288.422 673.33 288.422H719.423L734 275.321L748.577 288.422H785.629C790.23 288.422 793.959 284.747 793.959 280.213V272.004H686.818Z" fill="#57697D"/>
<path d="M719.423 272.004H748.578V288.422H719.423V272.004Z" fill="#A6B0BD"/>
<path d="M792.668 256.456C791.357 253.437 788.345 251.481 785.013 251.481H775.972L793.959 280.213H803L792.668 256.456Z" fill="#A6B0BD"/>
<path d="M783.627 256.456L785.012 259.69L778.486 263.787L788.601 267.899L793.959 280.213H665L675.332 256.456C676.643 253.437 679.655 251.481 682.987 251.481H775.972C779.304 251.481 782.314 253.437 783.627 256.456Z" fill="#C0C8D2"/>
<path d="M773.845 179.787L750.243 211.529L773.845 243.272H782.175V179.787H773.845Z" fill="#1E8AFF"/>
<path d="M685.825 179.787H773.845V243.272H685.825V179.787Z" fill="#54A5FF"/>
<path d="M788.6 267.899L785.012 259.69H682.988L679.418 267.899H788.6Z" fill="#57697D"/>
<path d="M638.715 127.639C638.519 127.639 638.328 127.66 638.134 127.671C640.28 120.044 636.333 111.969 629.316 109.636C622.3 107.302 614.873 111.594 612.727 119.221C612.342 120.591 612.146 122.015 612.146 123.446C612.146 123.619 612.164 123.786 612.17 123.958C605.562 124.452 600.574 130.676 601.029 137.859C601.462 144.7 606.695 150.008 613.003 150.002H638.715C644.395 150.002 649 144.996 649 138.82C649 132.645 644.395 127.639 638.715 127.639Z" fill="#168DE2"/>
<path d="M613.003 124.844C619.153 124.852 624.138 130.27 624.145 136.957H625.859C625.851 129.242 620.1 122.989 613.003 122.981H612.167C612.167 123.136 612.146 123.289 612.146 123.446C612.146 123.619 612.164 123.787 612.17 123.958C610.944 124.052 609.74 124.351 608.598 124.844H613.003Z" fill="#147EC9"/>
<path d="M642.82 128.571C641.525 127.956 640.128 127.639 638.715 127.639C638.519 127.639 638.328 127.66 638.134 127.671C638.22 127.361 638.298 127.046 638.365 126.727C632.357 126.935 627.583 132.285 627.573 138.821H629.287C629.293 133.163 633.511 128.578 638.715 128.571H642.82Z" fill="#147EC9"/>
<path d="M844.729 152.971C844.541 152.929 840.069 151.933 835.53 149.449C829.296 146.036 826 141.45 826 136.187V115.494C826 114.78 826.573 114.201 827.28 114.201C834.073 114.201 838.124 112.911 840.542 111.828C843.046 110.707 843.911 109.575 843.985 109.491C844.541 108.789 845.559 108.855 846.023 109.59C846.101 109.693 847.13 110.783 849.407 111.867C851.644 112.932 855.98 114.201 862.72 114.201C863.427 114.201 864 114.78 864 115.494V136.187C864 141.45 860.704 146.036 854.47 149.449C849.932 151.933 845.459 152.929 845.271 152.971C845.092 153.01 844.908 153.01 844.729 152.971Z" fill="#136ADF"/>
<path d="M862.72 114.201C855.98 114.201 851.644 112.932 849.407 111.867C847.13 110.783 846.101 109.693 846.023 109.59C845.8 109.237 845.434 109.013 845 109.002V153C845.776 153 864 148.676 864 136.187V115.494C864 114.78 863.427 114.201 862.72 114.201Z" fill="#0C55B7"/>
<path d="M841.165 130.152V125.798C841.165 123.779 842.743 121.961 845.039 121.961C847.132 121.961 848.835 123.682 848.835 125.798C848.835 126.512 849.408 127.091 850.115 127.091C850.822 127.091 851.395 126.512 851.395 125.798C851.395 122.367 848.683 119.374 844.961 119.374C841.456 119.374 838.605 122.256 838.605 125.798V130.152H841.165Z" fill="#E1E4F9"/>
<path d="M845 119.374V121.961C847.215 121.961 848.835 123.75 848.835 125.798C848.835 126.512 849.408 127.091 850.115 127.091C850.822 127.091 851.395 126.512 851.395 125.798C851.395 122.33 848.633 119.374 845 119.374Z" fill="#D6DAF6"/>
<path d="M852.679 129.721H837.321C836.614 129.721 836.041 130.3 836.041 131.014V141.36C836.041 142.075 836.614 142.654 837.321 142.654H852.679C853.385 142.654 853.958 142.075 853.958 141.36V131.014C853.958 130.3 853.385 129.721 852.679 129.721ZM845 137.48C844.293 137.48 843.72 136.901 843.72 136.187C843.72 135.473 844.293 134.894 845 134.894C845.707 134.894 846.28 135.473 846.28 136.187C846.28 136.901 845.707 137.48 845 137.48Z" fill="#FEB655"/>
<path d="M852.679 129.721H845V134.894C845.707 134.894 846.28 135.473 846.28 136.187C846.28 136.901 845.707 137.48 845 137.48V142.654H852.679C853.386 142.654 853.959 142.075 853.959 141.36V131.014C853.959 130.3 853.386 129.721 852.679 129.721Z" fill="#FD9A2B"/>
<path d="M796 96.75C796 93.5742 787.27 91 776.5 91C765.731 91 757 93.5742 757 96.75C757 99.9258 765.731 102.5 776.5 102.5C787.27 102.5 796 99.9258 796 96.75Z" fill="#56A2FE"/>
<path d="M776.5 114C787.266 114 796 111.429 796 108.25V96.75C796 99.9289 787.266 102.5 776.5 102.5C765.734 102.5 757 99.9289 757 96.75V108.25C757 111.429 765.734 114 776.5 114Z" fill="#9BC9FF"/>
<path d="M776.5 125.5C787.266 125.5 796 122.929 796 119.75V108.25C796 111.429 787.266 114 776.5 114C765.734 114 757 111.429 757 108.25V119.75C757 122.929 765.734 125.5 776.5 125.5Z" fill="#57A4FF"/>
<path d="M796 119.75C796 122.929 787.266 125.5 776.5 125.5C765.734 125.5 757 122.929 757 119.75V131.25C757 134.429 765.734 137 776.5 137C787.266 137 796 134.429 796 131.25V119.75Z" fill="#2488FF"/>
<path d="M718.816 91.377H687.184C685.113 91.377 683.419 93.0361 683.419 95.0639V126.774H722.581V95.0639C722.581 93.0361 720.886 91.377 718.816 91.377Z" fill="#FEF4F5"/>
<path d="M722.581 95.0639C722.581 93.0361 720.886 91.377 718.816 91.377H703V126.774H722.581V95.0639Z" fill="#D5EDED"/>
<path d="M722.581 128.151H683.419C682.642 128.151 682.012 127.534 682.012 126.774V95.0639C682.012 92.2716 684.333 90 687.184 90H718.816C721.667 90 723.988 92.2716 723.988 95.0639V126.774C723.988 127.534 723.358 128.151 722.581 128.151ZM684.825 125.397H721.175V95.0639C721.175 93.7902 720.117 92.7539 718.816 92.7539H687.184C685.883 92.7539 684.825 93.7902 684.825 95.0639V125.397Z" fill="#0065A3"/>
<path d="M718.816 90H703V92.7539H718.816C720.117 92.7539 721.175 93.7902 721.175 95.0639V125.397H703V128.151H722.581C723.358 128.151 723.988 127.534 723.988 126.774V95.0639C723.988 92.2716 721.667 90 718.816 90Z" fill="#005183"/>
<path d="M708.188 115.086C707.411 115.086 706.781 115.703 706.781 116.463H700.228C700.228 115.703 699.598 115.086 698.822 115.086C698.045 115.086 697.416 115.703 697.416 116.463V126.774C697.416 127.534 698.045 128.151 698.822 128.151H708.188C708.964 128.151 709.594 127.534 709.594 126.774V116.463C709.594 115.703 708.964 115.086 708.188 115.086Z" fill="#D55F05"/>
<path d="M708.188 115.086C707.411 115.086 706.781 115.703 706.781 116.463H703V128.151H708.188C708.964 128.151 709.594 127.534 709.594 126.774V116.463C709.594 115.703 708.964 115.086 708.188 115.086Z" fill="#A24603"/>
<path d="M709.182 100.816C706.915 98.5966 703.901 97.3742 700.695 97.3742C697.491 97.3742 694.478 98.5956 692.211 100.813C692.211 100.813 692.211 100.813 692.211 100.814C692.21 100.814 692.21 100.814 692.21 100.814C692.21 100.814 692.21 100.815 692.21 100.814C692.21 100.814 692.21 100.815 692.21 100.815C692.209 100.815 692.209 100.815 692.209 100.815H692.209V100.816C692.208 100.816 692.208 100.816 692.208 100.816V100.816C692.208 100.816 692.208 100.816 692.208 100.816C692.208 100.816 692.208 100.816 692.208 100.816H692.208C692.208 100.816 692.208 100.817 692.208 100.816C692.207 100.817 692.207 100.817 692.207 100.817C692.207 100.817 692.206 100.818 692.206 100.818C692.206 100.818 692.206 100.818 692.205 100.819C692.205 100.819 692.205 100.819 692.204 100.819C692.204 100.82 692.204 100.82 692.204 100.82C692.203 100.821 692.203 100.821 692.203 100.821L692.202 100.822C692.202 100.822 692.202 100.822 692.201 100.823C692.201 100.823 692.201 100.823 692.201 100.823C692.2 100.824 692.2 100.824 692.2 100.824L692.199 100.825C692.199 100.825 692.198 100.826 692.198 100.826C692.198 100.827 692.197 100.827 692.196 100.828V100.828C692.196 100.828 692.195 100.829 692.195 100.83C692.195 100.83 692.195 100.83 692.195 100.83C692.193 100.832 692.191 100.834 692.189 100.836C691.832 101.199 691.719 101.706 691.849 102.161C691.849 102.162 691.849 102.163 691.849 102.163C691.85 102.164 691.85 102.165 691.85 102.165C691.85 102.166 691.85 102.167 691.851 102.167V102.168C691.851 102.168 691.851 102.169 691.851 102.169V102.17C691.851 102.17 691.852 102.171 691.852 102.171V102.172C691.852 102.172 691.852 102.173 691.853 102.173V102.174C691.853 102.174 691.853 102.175 691.853 102.175C691.853 102.176 691.853 102.176 691.853 102.176C691.853 102.176 691.853 102.177 691.854 102.177V102.178C691.854 102.178 691.854 102.179 691.854 102.18C691.854 102.18 691.854 102.18 691.854 102.18C691.854 102.18 691.854 102.181 691.855 102.181V102.182C691.855 102.182 691.855 102.183 691.855 102.184C691.855 102.184 691.855 102.184 691.855 102.184C691.856 102.185 691.856 102.185 691.856 102.186C691.856 102.186 691.856 102.186 691.856 102.186C691.856 102.187 691.857 102.187 691.857 102.187V102.188C691.857 102.189 691.857 102.189 691.857 102.19C691.857 102.19 691.857 102.19 691.857 102.19C691.857 102.191 691.858 102.191 691.858 102.192C691.858 102.192 691.858 102.192 691.858 102.192C691.858 102.193 691.858 102.193 691.858 102.194C691.858 102.194 691.858 102.194 691.859 102.195V102.196C691.859 102.196 691.859 102.196 691.859 102.197C691.859 102.197 691.859 102.198 691.859 102.198C691.86 102.198 691.86 102.199 691.86 102.199C691.86 102.199 691.86 102.2 691.86 102.2C691.86 102.2 691.86 102.201 691.861 102.201V102.202C691.861 102.202 691.861 102.203 691.861 102.203C691.861 102.203 691.861 102.204 691.861 102.204C691.861 102.204 691.862 102.205 691.862 102.205C691.862 102.205 691.862 102.206 691.862 102.206C691.862 102.206 691.862 102.207 691.862 102.207V102.208C691.863 102.208 691.863 102.209 691.863 102.209V102.21C691.864 102.21 691.864 102.211 691.864 102.211V102.212C691.864 102.213 691.864 102.213 691.864 102.214C691.865 102.214 691.865 102.214 691.865 102.214C691.865 102.215 691.865 102.215 691.865 102.216C691.865 102.217 691.865 102.217 691.866 102.218C691.866 102.219 691.866 102.219 691.866 102.22V102.22C691.866 102.221 691.867 102.221 691.867 102.222H691.867C691.868 102.223 691.868 102.223 691.868 102.224V102.224C691.868 102.225 691.868 102.225 691.869 102.226V102.226C691.869 102.227 691.869 102.229 691.87 102.23C691.87 102.231 691.871 102.233 691.871 102.234C691.936 102.419 692.042 102.594 692.189 102.745H692.189C692.19 102.745 692.19 102.746 692.191 102.746C692.191 102.746 692.191 102.746 692.191 102.746C692.191 102.747 692.192 102.747 692.192 102.748C692.192 102.748 692.192 102.748 692.193 102.748C692.193 102.749 692.193 102.749 692.194 102.749L692.194 102.75C692.195 102.75 692.195 102.75 692.195 102.751C692.196 102.751 692.196 102.751 692.196 102.751C692.196 102.752 692.197 102.752 692.197 102.753C692.197 102.753 692.197 102.753 692.198 102.753C692.198 102.753 692.198 102.754 692.199 102.754C692.199 102.754 692.199 102.754 692.199 102.755C692.199 102.755 692.2 102.755 692.2 102.755C692.2 102.756 692.2 102.756 692.201 102.756C692.201 102.757 692.201 102.757 692.202 102.757C692.202 102.757 692.202 102.758 692.202 102.758L692.203 102.759C692.203 102.759 692.204 102.759 692.204 102.759C692.204 102.76 692.204 102.76 692.205 102.76C692.205 102.76 692.205 102.761 692.206 102.761C692.206 102.761 692.206 102.762 692.206 102.762C692.207 102.762 692.207 102.762 692.207 102.763C692.207 102.763 692.208 102.763 692.208 102.763C692.208 102.764 692.208 102.764 692.208 102.764H692.209C692.209 102.765 692.209 102.765 692.209 102.765L692.21 102.766C692.211 102.766 692.211 102.766 692.211 102.767C692.211 102.767 692.212 102.767 692.212 102.768C692.212 102.768 692.212 102.768 692.213 102.768L692.214 102.769C692.214 102.769 692.214 102.769 692.214 102.769C692.214 102.77 692.215 102.771 692.215 102.771C692.215 102.771 692.215 102.771 692.216 102.771L692.217 102.772C692.217 102.773 692.217 102.773 692.217 102.773C692.218 102.773 692.218 102.774 692.219 102.774H692.219C692.219 102.775 692.22 102.775 692.22 102.776C692.221 102.776 692.221 102.776 692.221 102.776L692.222 102.777L692.224 102.779L692.224 102.779C692.224 102.779 692.225 102.78 692.225 102.781L692.227 102.782H692.227C692.228 102.783 692.228 102.783 692.229 102.784C692.475 103.016 692.786 103.143 693.104 103.164H693.104C693.105 103.164 693.106 103.164 693.107 103.165H693.109C693.11 103.165 693.111 103.165 693.112 103.165C693.485 103.189 693.865 103.067 694.157 102.803C694.158 102.802 694.159 102.802 694.159 102.802C694.159 102.801 694.159 102.801 694.159 102.801C694.16 102.801 694.16 102.801 694.161 102.8C694.161 102.8 694.161 102.8 694.161 102.8C694.161 102.8 694.162 102.799 694.162 102.799C694.162 102.798 694.163 102.798 694.163 102.798C694.163 102.798 694.163 102.797 694.164 102.797C694.164 102.797 694.164 102.797 694.164 102.797L694.166 102.796C694.166 102.796 694.166 102.795 694.166 102.795L694.167 102.794C694.167 102.794 694.167 102.794 694.168 102.793C694.168 102.793 694.168 102.793 694.168 102.793C694.169 102.792 694.169 102.792 694.169 102.792C694.17 102.792 694.17 102.792 694.17 102.791C694.17 102.791 694.171 102.791 694.171 102.791C694.171 102.79 694.171 102.79 694.172 102.79C694.172 102.79 694.172 102.789 694.172 102.789C694.173 102.789 694.173 102.788 694.173 102.788C694.174 102.788 694.174 102.788 694.174 102.787C694.175 102.787 694.175 102.787 694.175 102.787L694.176 102.786C694.176 102.786 694.176 102.786 694.177 102.785C694.177 102.785 694.177 102.785 694.178 102.784L694.178 102.784C694.178 102.783 694.179 102.783 694.179 102.783C694.179 102.782 694.179 102.782 694.179 102.782C694.18 102.782 694.181 102.781 694.181 102.781L694.181 102.781C694.182 102.78 694.182 102.78 694.182 102.779L694.183 102.779C694.183 102.779 694.184 102.778 694.184 102.778C694.184 102.778 694.184 102.778 694.185 102.777C694.185 102.777 694.185 102.777 694.186 102.776C694.186 102.776 694.186 102.776 694.186 102.776C694.186 102.776 694.187 102.775 694.187 102.774H694.188C694.188 102.774 694.189 102.773 694.189 102.773C694.189 102.773 694.189 102.773 694.189 102.773C694.19 102.772 694.19 102.772 694.191 102.772C694.191 102.771 694.191 102.771 694.191 102.771C694.192 102.771 694.192 102.77 694.193 102.77C694.193 102.769 694.194 102.769 694.194 102.768C694.194 102.768 694.194 102.768 694.194 102.768C694.195 102.768 694.195 102.767 694.196 102.767C694.196 102.766 694.197 102.765 694.197 102.765C694.197 102.765 694.197 102.765 694.197 102.765C694.198 102.764 694.198 102.764 694.198 102.764C694.683 102.29 695.327 102.029 696.012 102.029C696.698 102.029 697.343 102.291 697.828 102.765C698.829 103.746 698.829 105.34 697.828 106.32C694.698 109.386 694.697 114.373 697.828 117.439C699.344 118.924 701.36 119.741 703.505 119.741C705.65 119.741 707.666 118.924 709.183 117.439C713.862 112.855 713.861 105.399 709.182 100.816Z" fill="#253F66"/>
<path d="M725.594 125.397H680.406C679.63 125.397 679 126.013 679 126.774V128.248C679 133.074 683.009 137 687.937 137H718.063C722.991 137 727 133.074 727 128.248V126.774C727 126.013 726.37 125.397 725.594 125.397Z" fill="#5795E8"/>
<path d="M709.182 117.437C713.862 112.855 713.861 105.399 709.182 100.816C707.468 99.1385 705.328 98.0312 703 97.5901V119.722C703.167 119.733 703.335 119.74 703.505 119.74C705.65 119.74 707.666 118.922 709.182 117.437Z" fill="#13233C"/>
<path d="M725.594 125.397H703V137H718.063C722.991 137 727 133.074 727 128.248V126.774C727 126.013 726.37 125.397 725.594 125.397Z" fill="#136ADF"/>
</svg>
