<svg width="609" height="618" viewBox="0 0 609 618" fill="none" xmlns="http://www.w3.org/2000/svg">
<mask id="mask0" mask-type="alpha" maskUnits="userSpaceOnUse" x="0" y="0" width="609" height="618">
<path d="M498.373 205.013C558.817 317.704 520.975 455.588 413.923 513.007C306.871 570.427 171.072 525.679 110.627 412.988C50.1832 300.296 88.0249 162.413 195.077 104.993C302.129 47.5738 437.929 92.3216 498.373 205.013Z" fill="#C4C4C4" stroke="#E0E0E0"/>
</mask>
<g mask="url(#mask0)">
<path d="M21.4268 235.301L397.747 33.4547" stroke="#E0E0E0"/>
<path d="M44.4551 278.235L420.775 76.3888" stroke="#E0E0E0"/>
<path d="M66.3872 319.125L442.707 117.278" stroke="#E0E0E0"/>
<path d="M88.3188 360.014L464.639 158.168" stroke="#E0E0E0"/>
<path d="M154.115 482.683L530.435 280.836" stroke="#E0E0E0"/>
<path d="M110.251 400.904L486.571 199.057" stroke="#E0E0E0"/>
<path d="M176.046 523.573L552.367 321.726" stroke="#E0E0E0"/>
<path d="M132.183 441.793L508.503 239.947" stroke="#E0E0E0"/>
<path d="M197.979 564.462L574.299 362.615" stroke="#E0E0E0"/>
<path d="M217.717 601.262L594.037 399.416" stroke="#E0E0E0"/>
</g>
</svg>
