<svg width="608" height="618" viewBox="0 0 608 618" fill="none" xmlns="http://www.w3.org/2000/svg">
<mask id="mask0" mask-type="alpha" maskUnits="userSpaceOnUse" x="0" y="-1" width="608" height="619">
<path d="M497.845 204.684C558.29 317.375 520.448 455.259 413.396 512.678C306.344 570.098 170.544 525.35 110.1 412.659C49.6559 299.967 87.4976 162.084 194.55 104.664C301.602 47.2447 437.401 91.9925 497.845 204.684Z" fill="#4F4F4F" stroke="#828282"/>
</mask>
<g mask="url(#mask0)">
<path d="M20.8994 234.972L397.22 33.1256" stroke="#828282"/>
<path d="M43.9277 277.906L420.248 76.0597" stroke="#828282"/>
<path d="M65.8599 318.796L442.18 116.949" stroke="#828282"/>
<path d="M87.7915 359.685L464.112 157.839" stroke="#828282"/>
<path d="M153.587 482.354L529.908 280.507" stroke="#828282"/>
<path d="M109.724 400.575L486.044 198.728" stroke="#828282"/>
<path d="M175.519 523.243L551.839 321.397" stroke="#828282"/>
<path d="M131.655 441.464L507.975 239.618" stroke="#828282"/>
<path d="M197.451 564.133L573.771 362.286" stroke="#828282"/>
<path d="M217.19 600.933L593.51 399.087" stroke="#828282"/>
</g>
</svg>
