<svg width="213" height="61" viewBox="0 0 213 61" fill="none" xmlns="http://www.w3.org/2000/svg">
<path d="M23.176 24.256C22.2693 24.256 21.4747 24.0107 20.792 23.52C20.12 23.0293 19.6507 22.352 19.384 21.488L21.368 20.672C21.5067 21.184 21.7307 21.568 22.04 21.824C22.3493 22.08 22.728 22.208 23.176 22.208C23.6773 22.208 24.0667 22.048 24.344 21.728C24.6213 21.408 24.76 20.96 24.76 20.384V12.544H26.92V20.368C26.92 21.008 26.8187 21.5733 26.616 22.064C26.424 22.544 26.1573 22.9493 25.816 23.28C25.4853 23.6 25.0907 23.84 24.632 24C24.184 24.1707 23.6987 24.256 23.176 24.256ZM35.427 12.544H39.299C40.2057 12.544 41.0217 12.6827 41.747 12.96C42.4723 13.2373 43.091 13.632 43.603 14.144C44.115 14.6453 44.5043 15.248 44.771 15.952C45.0483 16.656 45.187 17.4293 45.187 18.272C45.187 19.1253 45.0483 19.904 44.771 20.608C44.5043 21.312 44.115 21.9147 43.603 22.416C43.091 22.9173 42.4723 23.3067 41.747 23.584C41.0217 23.8613 40.2057 24 39.299 24H35.427V12.544ZM39.203 21.952C39.8323 21.952 40.387 21.8667 40.867 21.696C41.347 21.5147 41.747 21.264 42.067 20.944C42.387 20.624 42.627 20.24 42.787 19.792C42.947 19.3333 43.027 18.8267 43.027 18.272C43.027 17.7173 42.947 17.216 42.787 16.768C42.627 16.3093 42.387 15.92 42.067 15.6C41.747 15.28 41.347 15.0347 40.867 14.864C40.387 14.6827 39.8323 14.592 39.203 14.592H37.587V21.952H39.203Z" fill="#BDBDBD"/>
<path d="M73.2586 22.16C72.6933 22.8427 72.0266 23.3653 71.2586 23.728C70.4906 24.08 69.632 24.256 68.6826 24.256C67.8293 24.256 67.0346 24.1013 66.2986 23.792C65.5733 23.4827 64.944 23.0613 64.4106 22.528C63.8773 21.9947 63.456 21.3653 63.1466 20.64C62.8373 19.904 62.6826 19.1147 62.6826 18.272C62.6826 17.4293 62.8373 16.6453 63.1466 15.92C63.456 15.184 63.8773 14.5493 64.4106 14.016C64.944 13.4827 65.5733 13.0613 66.2986 12.752C67.0346 12.4427 67.8293 12.288 68.6826 12.288C69.6 12.288 70.4053 12.448 71.0986 12.768C71.8026 13.088 72.4266 13.552 72.9706 14.16L71.4506 15.632C71.1093 15.2373 70.7146 14.9227 70.2666 14.688C69.8293 14.4533 69.3066 14.336 68.6986 14.336C68.1653 14.336 67.664 14.432 67.1946 14.624C66.7253 14.8053 66.3146 15.0667 65.9626 15.408C65.6213 15.7493 65.3493 16.1653 65.1466 16.656C64.944 17.136 64.8426 17.6747 64.8426 18.272C64.8426 18.8693 64.944 19.4133 65.1466 19.904C65.3493 20.384 65.6213 20.7947 65.9626 21.136C66.3146 21.4773 66.7253 21.744 67.1946 21.936C67.664 22.1173 68.1653 22.208 68.6986 22.208C69.3386 22.208 69.904 22.08 70.3946 21.824C70.896 21.5573 71.3386 21.184 71.7226 20.704L73.2586 22.16ZM86.6604 24.256C85.807 24.256 85.0124 24.1013 84.2764 23.792C83.551 23.4827 82.9217 23.0613 82.3884 22.528C81.855 21.984 81.4337 21.3493 81.1244 20.624C80.8257 19.888 80.6764 19.104 80.6764 18.272C80.6764 17.44 80.8257 16.6613 81.1244 15.936C81.4337 15.2 81.855 14.5653 82.3884 14.032C82.9217 13.488 83.551 13.0613 84.2764 12.752C85.0124 12.4427 85.807 12.288 86.6604 12.288C87.5137 12.288 88.303 12.4427 89.0284 12.752C89.7644 13.0613 90.399 13.488 90.9324 14.032C91.4657 14.5653 91.8817 15.2 92.1804 15.936C92.4897 16.6613 92.6444 17.44 92.6444 18.272C92.6444 19.104 92.4897 19.888 92.1804 20.624C91.8817 21.3493 91.4657 21.984 90.9324 22.528C90.399 23.0613 89.7644 23.4827 89.0284 23.792C88.303 24.1013 87.5137 24.256 86.6604 24.256ZM86.6604 22.208C87.1937 22.208 87.6897 22.112 88.1484 21.92C88.6177 21.728 89.023 21.4613 89.3644 21.12C89.7164 20.7787 89.9884 20.368 90.1804 19.888C90.383 19.3973 90.4844 18.8587 90.4844 18.272C90.4844 17.6853 90.383 17.152 90.1804 16.672C89.9884 16.1813 89.7164 15.7653 89.3644 15.424C89.023 15.0827 88.6177 14.816 88.1484 14.624C87.6897 14.432 87.1937 14.336 86.6604 14.336C86.127 14.336 85.6257 14.432 85.1564 14.624C84.6977 14.816 84.2924 15.0827 83.9404 15.424C83.599 15.7653 83.327 16.1813 83.1244 16.672C82.9324 17.152 82.8364 17.6853 82.8364 18.272C82.8364 18.8587 82.9324 19.3973 83.1244 19.888C83.327 20.368 83.599 20.7787 83.9404 21.12C84.2924 21.4613 84.6977 21.728 85.1564 21.92C85.6257 22.112 86.127 22.208 86.6604 22.208ZM100.793 12.544H102.921L106.425 18.608H106.553L110.057 12.544H112.201V24H110.057V18.352L110.185 16.432H110.057L107.145 21.568H105.849L102.921 16.432H102.793L102.921 18.352V24H100.793V12.544ZM120.911 24V12.544H124.943C125.487 12.544 125.994 12.6347 126.463 12.816C126.943 12.9867 127.359 13.232 127.711 13.552C128.063 13.872 128.341 14.256 128.543 14.704C128.746 15.1413 128.847 15.6267 128.847 16.16C128.847 16.704 128.746 17.2 128.543 17.648C128.341 18.0853 128.063 18.464 127.711 18.784C127.359 19.104 126.943 19.3547 126.463 19.536C125.994 19.7067 125.487 19.792 124.943 19.792H123.071V24H120.911ZM124.975 17.744C125.541 17.744 125.967 17.584 126.255 17.264C126.543 16.944 126.687 16.576 126.687 16.16C126.687 15.9573 126.65 15.76 126.575 15.568C126.511 15.376 126.405 15.2107 126.255 15.072C126.117 14.9227 125.941 14.8053 125.727 14.72C125.514 14.6347 125.263 14.592 124.975 14.592H123.071V17.744H124.975ZM140.972 24.256C140.3 24.256 139.687 24.1493 139.132 23.936C138.588 23.712 138.124 23.392 137.74 22.976C137.356 22.56 137.057 22.0587 136.844 21.472C136.631 20.8747 136.524 20.1973 136.524 19.44V12.544H138.684V19.568C138.684 19.952 138.732 20.304 138.828 20.624C138.924 20.944 139.068 21.2213 139.26 21.456C139.452 21.6907 139.692 21.8773 139.98 22.016C140.268 22.144 140.599 22.208 140.972 22.208C141.356 22.208 141.692 22.144 141.98 22.016C142.268 21.8773 142.508 21.6907 142.7 21.456C142.892 21.2213 143.036 20.944 143.132 20.624C143.228 20.304 143.276 19.952 143.276 19.568V12.544H145.436V19.44C145.436 20.1547 145.329 20.8107 145.116 21.408C144.913 21.9947 144.615 22.5013 144.22 22.928C143.836 23.344 143.367 23.6693 142.812 23.904C142.268 24.1387 141.655 24.256 140.972 24.256ZM156.315 24V14.592H153.115V12.544H161.675V14.592H158.475V24H156.315ZM171.771 14.592V17.248H176.363V19.296H171.771V21.952H176.875V24H169.611V12.544H176.875V14.592H171.771ZM185.261 12.544H189.437C190.013 12.544 190.536 12.6347 191.005 12.816C191.475 12.9973 191.875 13.248 192.205 13.568C192.547 13.888 192.808 14.272 192.989 14.72C193.171 15.1573 193.261 15.6373 193.261 16.16C193.261 16.544 193.197 16.9067 193.069 17.248C192.941 17.5787 192.765 17.8827 192.541 18.16C192.317 18.4267 192.056 18.6667 191.757 18.88C191.459 19.0827 191.144 19.2427 190.813 19.36L190.797 19.472L193.869 23.872V24H191.389L188.429 19.696H187.421V24H185.261V12.544ZM189.421 17.712C189.912 17.712 190.312 17.5627 190.621 17.264C190.941 16.9653 191.101 16.5867 191.101 16.128C191.101 15.9253 191.064 15.728 190.989 15.536C190.925 15.344 190.824 15.1733 190.685 15.024C190.547 14.8747 190.371 14.7573 190.157 14.672C189.955 14.576 189.72 14.528 189.453 14.528H187.421V17.712H189.421Z" fill="white"/>
<path d="M23.464 49V42.532H21.264V41.124H27.149V42.532H24.949V49H23.464ZM37.3901 42.532V44.358H40.5471V45.766H37.3901V47.592H40.8991V49H35.9051V41.124H40.8991V42.532H37.3901ZM56.6356 47.735C56.247 48.2043 55.7886 48.5637 55.2606 48.813C54.7326 49.055 54.1423 49.176 53.4896 49.176C52.903 49.176 52.3566 49.0697 51.8506 48.857C51.352 48.6443 50.9193 48.3547 50.5526 47.988C50.186 47.6213 49.8963 47.1887 49.6836 46.69C49.471 46.184 49.3646 45.6413 49.3646 45.062C49.3646 44.4827 49.471 43.9437 49.6836 43.445C49.8963 42.939 50.186 42.5027 50.5526 42.136C50.9193 41.7693 51.352 41.4797 51.8506 41.267C52.3566 41.0543 52.903 40.948 53.4896 40.948C54.1203 40.948 54.674 41.058 55.1506 41.278C55.6346 41.498 56.0636 41.817 56.4376 42.235L55.3926 43.247C55.158 42.9757 54.8866 42.7593 54.5786 42.598C54.278 42.4367 53.9186 42.356 53.5006 42.356C53.134 42.356 52.7893 42.422 52.4666 42.554C52.144 42.6787 51.8616 42.8583 51.6196 43.093C51.385 43.3277 51.198 43.6137 51.0586 43.951C50.9193 44.281 50.8496 44.6513 50.8496 45.062C50.8496 45.4727 50.9193 45.8467 51.0586 46.184C51.198 46.514 51.385 46.7963 51.6196 47.031C51.8616 47.2657 52.144 47.449 52.4666 47.581C52.7893 47.7057 53.134 47.768 53.5006 47.768C53.9406 47.768 54.3293 47.68 54.6666 47.504C55.0113 47.3207 55.3156 47.064 55.5796 46.734L56.6356 47.735ZM65.5277 41.124H67.0127V44.27H70.3237V41.124H71.8087V49H70.3237V45.678H67.0127V49H65.5277V41.124ZM81.091 41.124H82.818L85.986 46.404H86.074L85.986 44.886V41.124H87.46V49H85.898L82.554 43.423H82.466L82.554 44.941V49H81.091V41.124ZM100.362 49.176C99.7752 49.176 99.2288 49.0697 98.7228 48.857C98.2242 48.6443 97.7915 48.3547 97.4248 47.988C97.0582 47.614 96.7685 47.1777 96.5558 46.679C96.3505 46.173 96.2478 45.634 96.2478 45.062C96.2478 44.49 96.3505 43.9547 96.5558 43.456C96.7685 42.95 97.0582 42.5137 97.4248 42.147C97.7915 41.773 98.2242 41.4797 98.7228 41.267C99.2288 41.0543 99.7752 40.948 100.362 40.948C100.948 40.948 101.491 41.0543 101.99 41.267C102.496 41.4797 102.932 41.773 103.299 42.147C103.665 42.5137 103.951 42.95 104.157 43.456C104.369 43.9547 104.476 44.49 104.476 45.062C104.476 45.634 104.369 46.173 104.157 46.679C103.951 47.1777 103.665 47.614 103.299 47.988C102.932 48.3547 102.496 48.6443 101.99 48.857C101.491 49.0697 100.948 49.176 100.362 49.176ZM100.362 47.768C100.728 47.768 101.069 47.702 101.385 47.57C101.707 47.438 101.986 47.2547 102.221 47.02C102.463 46.7853 102.65 46.503 102.782 46.173C102.921 45.8357 102.991 45.4653 102.991 45.062C102.991 44.6587 102.921 44.292 102.782 43.962C102.65 43.6247 102.463 43.3387 102.221 43.104C101.986 42.8693 101.707 42.686 101.385 42.554C101.069 42.422 100.728 42.356 100.362 42.356C99.9952 42.356 99.6505 42.422 99.3278 42.554C99.0125 42.686 98.7338 42.8693 98.4918 43.104C98.2572 43.3387 98.0702 43.6247 97.9308 43.962C97.7988 44.292 97.7328 44.6587 97.7328 45.062C97.7328 45.4653 97.7988 45.8357 97.9308 46.173C98.0702 46.503 98.2572 46.7853 98.4918 47.02C98.7338 47.2547 99.0125 47.438 99.3278 47.57C99.6505 47.702 99.9952 47.768 100.362 47.768ZM113.378 41.124H114.863V47.592H118.196V49H113.378V41.124ZM130.522 49.176C129.935 49.176 129.389 49.0697 128.883 48.857C128.384 48.6443 127.951 48.3547 127.585 47.988C127.218 47.614 126.928 47.1777 126.716 46.679C126.51 46.173 126.408 45.634 126.408 45.062C126.408 44.49 126.51 43.9547 126.716 43.456C126.928 42.95 127.218 42.5137 127.585 42.147C127.951 41.773 128.384 41.4797 128.883 41.267C129.389 41.0543 129.935 40.948 130.522 40.948C131.108 40.948 131.651 41.0543 132.15 41.267C132.656 41.4797 133.092 41.773 133.459 42.147C133.825 42.5137 134.111 42.95 134.317 43.456C134.529 43.9547 134.636 44.49 134.636 45.062C134.636 45.634 134.529 46.173 134.317 46.679C134.111 47.1777 133.825 47.614 133.459 47.988C133.092 48.3547 132.656 48.6443 132.15 48.857C131.651 49.0697 131.108 49.176 130.522 49.176ZM130.522 47.768C130.888 47.768 131.229 47.702 131.545 47.57C131.867 47.438 132.146 47.2547 132.381 47.02C132.623 46.7853 132.81 46.503 132.942 46.173C133.081 45.8357 133.151 45.4653 133.151 45.062C133.151 44.6587 133.081 44.292 132.942 43.962C132.81 43.6247 132.623 43.3387 132.381 43.104C132.146 42.8693 131.867 42.686 131.545 42.554C131.229 42.422 130.888 42.356 130.522 42.356C130.155 42.356 129.81 42.422 129.488 42.554C129.172 42.686 128.894 42.8693 128.652 43.104C128.417 43.3387 128.23 43.6247 128.091 43.962C127.959 44.292 127.893 44.6587 127.893 45.062C127.893 45.4653 127.959 45.8357 128.091 46.173C128.23 46.503 128.417 46.7853 128.652 47.02C128.894 47.2547 129.172 47.438 129.488 47.57C129.81 47.702 130.155 47.768 130.522 47.768ZM147.17 44.677H151.031C151.053 44.765 151.071 44.8713 151.086 44.996C151.101 45.1207 151.108 45.2453 151.108 45.37C151.108 45.876 151.031 46.3527 150.877 46.8C150.723 47.2473 150.481 47.647 150.151 47.999C149.799 48.373 149.377 48.6627 148.886 48.868C148.395 49.0733 147.834 49.176 147.203 49.176C146.631 49.176 146.092 49.0733 145.586 48.868C145.08 48.6627 144.64 48.3767 144.266 48.01C143.892 47.6433 143.595 47.2107 143.375 46.712C143.155 46.206 143.045 45.656 143.045 45.062C143.045 44.468 143.155 43.9217 143.375 43.423C143.595 42.917 143.892 42.4807 144.266 42.114C144.64 41.7473 145.08 41.4613 145.586 41.256C146.092 41.0507 146.631 40.948 147.203 40.948C147.841 40.948 148.409 41.058 148.908 41.278C149.414 41.498 149.847 41.8023 150.206 42.191L149.183 43.192C148.926 42.9207 148.64 42.7153 148.325 42.576C148.01 42.4293 147.632 42.356 147.192 42.356C146.833 42.356 146.492 42.422 146.169 42.554C145.846 42.6787 145.564 42.8583 145.322 43.093C145.08 43.3277 144.886 43.6137 144.739 43.951C144.6 44.281 144.53 44.6513 144.53 45.062C144.53 45.4727 144.6 45.8467 144.739 46.184C144.886 46.514 145.08 46.7963 145.322 47.031C145.571 47.2657 145.857 47.449 146.18 47.581C146.503 47.7057 146.847 47.768 147.214 47.768C147.632 47.768 147.984 47.7093 148.27 47.592C148.563 47.4673 148.813 47.3097 149.018 47.119C149.165 46.987 149.289 46.822 149.392 46.624C149.502 46.4187 149.586 46.1913 149.645 45.942H147.17V44.677ZM160.035 41.124H161.52V49H160.035V41.124ZM172.293 42.532V44.358H175.45V45.766H172.293V47.592H175.802V49H170.808V41.124H175.802V42.532H172.293ZM187.276 49.176C186.939 49.176 186.616 49.1283 186.308 49.033C186 48.9377 185.718 48.7947 185.461 48.604C185.204 48.4133 184.981 48.1823 184.79 47.911C184.599 47.6323 184.449 47.3097 184.339 46.943L185.736 46.393C185.839 46.789 186.018 47.119 186.275 47.383C186.532 47.6397 186.869 47.768 187.287 47.768C187.441 47.768 187.588 47.7497 187.727 47.713C187.874 47.669 188.002 47.6103 188.112 47.537C188.229 47.4563 188.321 47.3573 188.387 47.24C188.453 47.1227 188.486 46.987 188.486 46.833C188.486 46.6863 188.46 46.5543 188.409 46.437C188.358 46.3197 188.27 46.2097 188.145 46.107C188.028 46.0043 187.87 45.9053 187.672 45.81C187.481 45.7147 187.243 45.6157 186.957 45.513L186.473 45.337C186.26 45.2637 186.044 45.1647 185.824 45.04C185.611 44.9153 185.417 44.765 185.241 44.589C185.065 44.413 184.918 44.2077 184.801 43.973C184.691 43.731 184.636 43.4597 184.636 43.159C184.636 42.851 184.695 42.565 184.812 42.301C184.937 42.0297 185.109 41.795 185.329 41.597C185.556 41.3917 185.824 41.234 186.132 41.124C186.447 41.0067 186.796 40.948 187.177 40.948C187.573 40.948 187.914 41.003 188.2 41.113C188.493 41.2157 188.739 41.3513 188.937 41.52C189.142 41.6813 189.307 41.861 189.432 42.059C189.557 42.257 189.648 42.444 189.707 42.62L188.398 43.17C188.325 42.95 188.189 42.752 187.991 42.576C187.8 42.4 187.536 42.312 187.199 42.312C186.876 42.312 186.609 42.389 186.396 42.543C186.183 42.6897 186.077 42.884 186.077 43.126C186.077 43.3607 186.18 43.5623 186.385 43.731C186.59 43.8923 186.917 44.05 187.364 44.204L187.859 44.369C188.174 44.479 188.46 44.6073 188.717 44.754C188.981 44.8933 189.205 45.062 189.388 45.26C189.579 45.458 189.722 45.6853 189.817 45.942C189.92 46.1913 189.971 46.481 189.971 46.811C189.971 47.2217 189.887 47.5773 189.718 47.878C189.557 48.1713 189.348 48.4133 189.091 48.604C188.834 48.7947 188.545 48.9377 188.222 49.033C187.899 49.1283 187.584 49.176 187.276 49.176Z" fill="white"/>
<rect x="0.5" y="0.5" width="212" height="60" stroke="#F2F2F2"/>
</svg>
