<svg width="213" height="61" viewBox="0 0 213 61" fill="none" xmlns="http://www.w3.org/2000/svg">
<path d="M23.176 24.256C22.2693 24.256 21.4747 24.0107 20.792 23.52C20.12 23.0293 19.6507 22.352 19.384 21.488L21.368 20.672C21.5067 21.184 21.7307 21.568 22.04 21.824C22.3493 22.08 22.728 22.208 23.176 22.208C23.6773 22.208 24.0667 22.048 24.344 21.728C24.6213 21.408 24.76 20.96 24.76 20.384V12.544H26.92V20.368C26.92 21.008 26.8187 21.5733 26.616 22.064C26.424 22.544 26.1573 22.9493 25.816 23.28C25.4853 23.6 25.0907 23.84 24.632 24C24.184 24.1707 23.6987 24.256 23.176 24.256ZM35.427 12.544H39.299C40.2057 12.544 41.0217 12.6827 41.747 12.96C42.4723 13.2373 43.091 13.632 43.603 14.144C44.115 14.6453 44.5043 15.248 44.771 15.952C45.0483 16.656 45.187 17.4293 45.187 18.272C45.187 19.1253 45.0483 19.904 44.771 20.608C44.5043 21.312 44.115 21.9147 43.603 22.416C43.091 22.9173 42.4723 23.3067 41.747 23.584C41.0217 23.8613 40.2057 24 39.299 24H35.427V12.544ZM39.203 21.952C39.8323 21.952 40.387 21.8667 40.867 21.696C41.347 21.5147 41.747 21.264 42.067 20.944C42.387 20.624 42.627 20.24 42.787 19.792C42.947 19.3333 43.027 18.8267 43.027 18.272C43.027 17.7173 42.947 17.216 42.787 16.768C42.627 16.3093 42.387 15.92 42.067 15.6C41.747 15.28 41.347 15.0347 40.867 14.864C40.387 14.6827 39.8323 14.592 39.203 14.592H37.587V21.952H39.203Z" fill="#2777E1"/>
<path d="M72.9461 22.16C72.3808 22.8427 71.7141 23.3653 70.9461 23.728C70.1781 24.08 69.3195 24.256 68.3701 24.256C67.5168 24.256 66.7221 24.1013 65.9861 23.792C65.2608 23.4827 64.6315 23.0613 64.0981 22.528C63.5648 21.9947 63.1435 21.3653 62.8341 20.64C62.5248 19.904 62.3701 19.1147 62.3701 18.272C62.3701 17.4293 62.5248 16.6453 62.8341 15.92C63.1435 15.184 63.5648 14.5493 64.0981 14.016C64.6315 13.4827 65.2608 13.0613 65.9861 12.752C66.7221 12.4427 67.5168 12.288 68.3701 12.288C69.2875 12.288 70.0928 12.448 70.7861 12.768C71.4901 13.088 72.1141 13.552 72.6581 14.16L71.1381 15.632C70.7968 15.2373 70.4021 14.9227 69.9541 14.688C69.5168 14.4533 68.9941 14.336 68.3861 14.336C67.8528 14.336 67.3515 14.432 66.8821 14.624C66.4128 14.8053 66.0021 15.0667 65.6501 15.408C65.3088 15.7493 65.0368 16.1653 64.8341 16.656C64.6315 17.136 64.5301 17.6747 64.5301 18.272C64.5301 18.8693 64.6315 19.4133 64.8341 19.904C65.0368 20.384 65.3088 20.7947 65.6501 21.136C66.0021 21.4773 66.4128 21.744 66.8821 21.936C67.3515 22.1173 67.8528 22.208 68.3861 22.208C69.0261 22.208 69.5915 22.08 70.0821 21.824C70.5835 21.5573 71.0261 21.184 71.4101 20.704L72.9461 22.16ZM86.3479 24.256C85.4945 24.256 84.6999 24.1013 83.9639 23.792C83.2385 23.4827 82.6092 23.0613 82.0759 22.528C81.5425 21.984 81.1212 21.3493 80.8119 20.624C80.5132 19.888 80.3639 19.104 80.3639 18.272C80.3639 17.44 80.5132 16.6613 80.8119 15.936C81.1212 15.2 81.5425 14.5653 82.0759 14.032C82.6092 13.488 83.2385 13.0613 83.9639 12.752C84.6999 12.4427 85.4945 12.288 86.3479 12.288C87.2012 12.288 87.9905 12.4427 88.7159 12.752C89.4519 13.0613 90.0865 13.488 90.6199 14.032C91.1532 14.5653 91.5692 15.2 91.8679 15.936C92.1772 16.6613 92.3319 17.44 92.3319 18.272C92.3319 19.104 92.1772 19.888 91.8679 20.624C91.5692 21.3493 91.1532 21.984 90.6199 22.528C90.0865 23.0613 89.4519 23.4827 88.7159 23.792C87.9905 24.1013 87.2012 24.256 86.3479 24.256ZM86.3479 22.208C86.8812 22.208 87.3772 22.112 87.8359 21.92C88.3052 21.728 88.7105 21.4613 89.0519 21.12C89.4039 20.7787 89.6759 20.368 89.8679 19.888C90.0705 19.3973 90.1719 18.8587 90.1719 18.272C90.1719 17.6853 90.0705 17.152 89.8679 16.672C89.6759 16.1813 89.4039 15.7653 89.0519 15.424C88.7105 15.0827 88.3052 14.816 87.8359 14.624C87.3772 14.432 86.8812 14.336 86.3479 14.336C85.8145 14.336 85.3132 14.432 84.8439 14.624C84.3852 14.816 83.9799 15.0827 83.6279 15.424C83.2865 15.7653 83.0145 16.1813 82.8119 16.672C82.6199 17.152 82.5239 17.6853 82.5239 18.272C82.5239 18.8587 82.6199 19.3973 82.8119 19.888C83.0145 20.368 83.2865 20.7787 83.6279 21.12C83.9799 21.4613 84.3852 21.728 84.8439 21.92C85.3132 22.112 85.8145 22.208 86.3479 22.208ZM100.48 12.544H102.608L106.112 18.608H106.24L109.744 12.544H111.888V24H109.744V18.352L109.872 16.432H109.744L106.832 21.568H105.536L102.608 16.432H102.48L102.608 18.352V24H100.48V12.544ZM120.599 24V12.544H124.631C125.175 12.544 125.682 12.6347 126.151 12.816C126.631 12.9867 127.047 13.232 127.399 13.552C127.751 13.872 128.028 14.256 128.231 14.704C128.434 15.1413 128.535 15.6267 128.535 16.16C128.535 16.704 128.434 17.2 128.231 17.648C128.028 18.0853 127.751 18.464 127.399 18.784C127.047 19.104 126.631 19.3547 126.151 19.536C125.682 19.7067 125.175 19.792 124.631 19.792H122.759V24H120.599ZM124.663 17.744C125.228 17.744 125.655 17.584 125.943 17.264C126.231 16.944 126.375 16.576 126.375 16.16C126.375 15.9573 126.338 15.76 126.263 15.568C126.199 15.376 126.092 15.2107 125.943 15.072C125.804 14.9227 125.628 14.8053 125.415 14.72C125.202 14.6347 124.951 14.592 124.663 14.592H122.759V17.744H124.663ZM140.66 24.256C139.988 24.256 139.374 24.1493 138.82 23.936C138.276 23.712 137.812 23.392 137.428 22.976C137.044 22.56 136.745 22.0587 136.532 21.472C136.318 20.8747 136.212 20.1973 136.212 19.44V12.544H138.372V19.568C138.372 19.952 138.42 20.304 138.516 20.624C138.612 20.944 138.756 21.2213 138.948 21.456C139.14 21.6907 139.38 21.8773 139.668 22.016C139.956 22.144 140.286 22.208 140.66 22.208C141.044 22.208 141.38 22.144 141.668 22.016C141.956 21.8773 142.196 21.6907 142.388 21.456C142.58 21.2213 142.724 20.944 142.82 20.624C142.916 20.304 142.964 19.952 142.964 19.568V12.544H145.124V19.44C145.124 20.1547 145.017 20.8107 144.804 21.408C144.601 21.9947 144.302 22.5013 143.908 22.928C143.524 23.344 143.054 23.6693 142.5 23.904C141.956 24.1387 141.342 24.256 140.66 24.256ZM156.003 24V14.592H152.803V12.544H161.363V14.592H158.163V24H156.003ZM171.459 14.592V17.248H176.051V19.296H171.459V21.952H176.563V24H169.299V12.544H176.563V14.592H171.459ZM184.949 12.544H189.125C189.701 12.544 190.224 12.6347 190.693 12.816C191.162 12.9973 191.562 13.248 191.893 13.568C192.234 13.888 192.496 14.272 192.677 14.72C192.858 15.1573 192.949 15.6373 192.949 16.16C192.949 16.544 192.885 16.9067 192.757 17.248C192.629 17.5787 192.453 17.8827 192.229 18.16C192.005 18.4267 191.744 18.6667 191.445 18.88C191.146 19.0827 190.832 19.2427 190.501 19.36L190.485 19.472L193.557 23.872V24H191.077L188.117 19.696H187.109V24H184.949V12.544ZM189.109 17.712C189.6 17.712 190 17.5627 190.309 17.264C190.629 16.9653 190.789 16.5867 190.789 16.128C190.789 15.9253 190.752 15.728 190.677 15.536C190.613 15.344 190.512 15.1733 190.373 15.024C190.234 14.8747 190.058 14.7573 189.845 14.672C189.642 14.576 189.408 14.528 189.141 14.528H187.109V17.712H189.109Z" fill="#031731"/>
<path d="M23.464 49V42.532H21.264V41.124H27.149V42.532H24.949V49H23.464ZM37.3901 42.532V44.358H40.5471V45.766H37.3901V47.592H40.8991V49H35.9051V41.124H40.8991V42.532H37.3901ZM56.6356 47.735C56.247 48.2043 55.7886 48.5637 55.2606 48.813C54.7326 49.055 54.1423 49.176 53.4896 49.176C52.903 49.176 52.3566 49.0697 51.8506 48.857C51.352 48.6443 50.9193 48.3547 50.5526 47.988C50.186 47.6213 49.8963 47.1887 49.6836 46.69C49.471 46.184 49.3646 45.6413 49.3646 45.062C49.3646 44.4827 49.471 43.9437 49.6836 43.445C49.8963 42.939 50.186 42.5027 50.5526 42.136C50.9193 41.7693 51.352 41.4797 51.8506 41.267C52.3566 41.0543 52.903 40.948 53.4896 40.948C54.1203 40.948 54.674 41.058 55.1506 41.278C55.6346 41.498 56.0636 41.817 56.4376 42.235L55.3926 43.247C55.158 42.9757 54.8866 42.7593 54.5786 42.598C54.278 42.4367 53.9186 42.356 53.5006 42.356C53.134 42.356 52.7893 42.422 52.4666 42.554C52.144 42.6787 51.8616 42.8583 51.6196 43.093C51.385 43.3277 51.198 43.6137 51.0586 43.951C50.9193 44.281 50.8496 44.6513 50.8496 45.062C50.8496 45.4727 50.9193 45.8467 51.0586 46.184C51.198 46.514 51.385 46.7963 51.6196 47.031C51.8616 47.2657 52.144 47.449 52.4666 47.581C52.7893 47.7057 53.134 47.768 53.5006 47.768C53.9406 47.768 54.3293 47.68 54.6666 47.504C55.0113 47.3207 55.3156 47.064 55.5796 46.734L56.6356 47.735ZM65.5277 41.124H67.0127V44.27H70.3237V41.124H71.8087V49H70.3237V45.678H67.0127V49H65.5277V41.124ZM81.091 41.124H82.818L85.986 46.404H86.074L85.986 44.886V41.124H87.46V49H85.898L82.554 43.423H82.466L82.554 44.941V49H81.091V41.124ZM100.362 49.176C99.7752 49.176 99.2288 49.0697 98.7228 48.857C98.2242 48.6443 97.7915 48.3547 97.4248 47.988C97.0582 47.614 96.7685 47.1777 96.5558 46.679C96.3505 46.173 96.2478 45.634 96.2478 45.062C96.2478 44.49 96.3505 43.9547 96.5558 43.456C96.7685 42.95 97.0582 42.5137 97.4248 42.147C97.7915 41.773 98.2242 41.4797 98.7228 41.267C99.2288 41.0543 99.7752 40.948 100.362 40.948C100.948 40.948 101.491 41.0543 101.99 41.267C102.496 41.4797 102.932 41.773 103.299 42.147C103.665 42.5137 103.951 42.95 104.157 43.456C104.369 43.9547 104.476 44.49 104.476 45.062C104.476 45.634 104.369 46.173 104.157 46.679C103.951 47.1777 103.665 47.614 103.299 47.988C102.932 48.3547 102.496 48.6443 101.99 48.857C101.491 49.0697 100.948 49.176 100.362 49.176ZM100.362 47.768C100.728 47.768 101.069 47.702 101.385 47.57C101.707 47.438 101.986 47.2547 102.221 47.02C102.463 46.7853 102.65 46.503 102.782 46.173C102.921 45.8357 102.991 45.4653 102.991 45.062C102.991 44.6587 102.921 44.292 102.782 43.962C102.65 43.6247 102.463 43.3387 102.221 43.104C101.986 42.8693 101.707 42.686 101.385 42.554C101.069 42.422 100.728 42.356 100.362 42.356C99.9952 42.356 99.6505 42.422 99.3278 42.554C99.0125 42.686 98.7338 42.8693 98.4918 43.104C98.2572 43.3387 98.0702 43.6247 97.9308 43.962C97.7988 44.292 97.7328 44.6587 97.7328 45.062C97.7328 45.4653 97.7988 45.8357 97.9308 46.173C98.0702 46.503 98.2572 46.7853 98.4918 47.02C98.7338 47.2547 99.0125 47.438 99.3278 47.57C99.6505 47.702 99.9952 47.768 100.362 47.768ZM113.378 41.124H114.863V47.592H118.196V49H113.378V41.124ZM130.522 49.176C129.935 49.176 129.389 49.0697 128.883 48.857C128.384 48.6443 127.951 48.3547 127.585 47.988C127.218 47.614 126.928 47.1777 126.716 46.679C126.51 46.173 126.408 45.634 126.408 45.062C126.408 44.49 126.51 43.9547 126.716 43.456C126.928 42.95 127.218 42.5137 127.585 42.147C127.951 41.773 128.384 41.4797 128.883 41.267C129.389 41.0543 129.935 40.948 130.522 40.948C131.108 40.948 131.651 41.0543 132.15 41.267C132.656 41.4797 133.092 41.773 133.459 42.147C133.825 42.5137 134.111 42.95 134.317 43.456C134.529 43.9547 134.636 44.49 134.636 45.062C134.636 45.634 134.529 46.173 134.317 46.679C134.111 47.1777 133.825 47.614 133.459 47.988C133.092 48.3547 132.656 48.6443 132.15 48.857C131.651 49.0697 131.108 49.176 130.522 49.176ZM130.522 47.768C130.888 47.768 131.229 47.702 131.545 47.57C131.867 47.438 132.146 47.2547 132.381 47.02C132.623 46.7853 132.81 46.503 132.942 46.173C133.081 45.8357 133.151 45.4653 133.151 45.062C133.151 44.6587 133.081 44.292 132.942 43.962C132.81 43.6247 132.623 43.3387 132.381 43.104C132.146 42.8693 131.867 42.686 131.545 42.554C131.229 42.422 130.888 42.356 130.522 42.356C130.155 42.356 129.81 42.422 129.488 42.554C129.172 42.686 128.894 42.8693 128.652 43.104C128.417 43.3387 128.23 43.6247 128.091 43.962C127.959 44.292 127.893 44.6587 127.893 45.062C127.893 45.4653 127.959 45.8357 128.091 46.173C128.23 46.503 128.417 46.7853 128.652 47.02C128.894 47.2547 129.172 47.438 129.488 47.57C129.81 47.702 130.155 47.768 130.522 47.768ZM147.17 44.677H151.031C151.053 44.765 151.071 44.8713 151.086 44.996C151.101 45.1207 151.108 45.2453 151.108 45.37C151.108 45.876 151.031 46.3527 150.877 46.8C150.723 47.2473 150.481 47.647 150.151 47.999C149.799 48.373 149.377 48.6627 148.886 48.868C148.395 49.0733 147.834 49.176 147.203 49.176C146.631 49.176 146.092 49.0733 145.586 48.868C145.08 48.6627 144.64 48.3767 144.266 48.01C143.892 47.6433 143.595 47.2107 143.375 46.712C143.155 46.206 143.045 45.656 143.045 45.062C143.045 44.468 143.155 43.9217 143.375 43.423C143.595 42.917 143.892 42.4807 144.266 42.114C144.64 41.7473 145.08 41.4613 145.586 41.256C146.092 41.0507 146.631 40.948 147.203 40.948C147.841 40.948 148.409 41.058 148.908 41.278C149.414 41.498 149.847 41.8023 150.206 42.191L149.183 43.192C148.926 42.9207 148.64 42.7153 148.325 42.576C148.01 42.4293 147.632 42.356 147.192 42.356C146.833 42.356 146.492 42.422 146.169 42.554C145.846 42.6787 145.564 42.8583 145.322 43.093C145.08 43.3277 144.886 43.6137 144.739 43.951C144.6 44.281 144.53 44.6513 144.53 45.062C144.53 45.4727 144.6 45.8467 144.739 46.184C144.886 46.514 145.08 46.7963 145.322 47.031C145.571 47.2657 145.857 47.449 146.18 47.581C146.503 47.7057 146.847 47.768 147.214 47.768C147.632 47.768 147.984 47.7093 148.27 47.592C148.563 47.4673 148.813 47.3097 149.018 47.119C149.165 46.987 149.289 46.822 149.392 46.624C149.502 46.4187 149.586 46.1913 149.645 45.942H147.17V44.677ZM160.035 41.124H161.52V49H160.035V41.124ZM172.293 42.532V44.358H175.45V45.766H172.293V47.592H175.802V49H170.808V41.124H175.802V42.532H172.293ZM187.276 49.176C186.939 49.176 186.616 49.1283 186.308 49.033C186 48.9377 185.718 48.7947 185.461 48.604C185.204 48.4133 184.981 48.1823 184.79 47.911C184.599 47.6323 184.449 47.3097 184.339 46.943L185.736 46.393C185.839 46.789 186.018 47.119 186.275 47.383C186.532 47.6397 186.869 47.768 187.287 47.768C187.441 47.768 187.588 47.7497 187.727 47.713C187.874 47.669 188.002 47.6103 188.112 47.537C188.229 47.4563 188.321 47.3573 188.387 47.24C188.453 47.1227 188.486 46.987 188.486 46.833C188.486 46.6863 188.46 46.5543 188.409 46.437C188.358 46.3197 188.27 46.2097 188.145 46.107C188.028 46.0043 187.87 45.9053 187.672 45.81C187.481 45.7147 187.243 45.6157 186.957 45.513L186.473 45.337C186.26 45.2637 186.044 45.1647 185.824 45.04C185.611 44.9153 185.417 44.765 185.241 44.589C185.065 44.413 184.918 44.2077 184.801 43.973C184.691 43.731 184.636 43.4597 184.636 43.159C184.636 42.851 184.695 42.565 184.812 42.301C184.937 42.0297 185.109 41.795 185.329 41.597C185.556 41.3917 185.824 41.234 186.132 41.124C186.447 41.0067 186.796 40.948 187.177 40.948C187.573 40.948 187.914 41.003 188.2 41.113C188.493 41.2157 188.739 41.3513 188.937 41.52C189.142 41.6813 189.307 41.861 189.432 42.059C189.557 42.257 189.648 42.444 189.707 42.62L188.398 43.17C188.325 42.95 188.189 42.752 187.991 42.576C187.8 42.4 187.536 42.312 187.199 42.312C186.876 42.312 186.609 42.389 186.396 42.543C186.183 42.6897 186.077 42.884 186.077 43.126C186.077 43.3607 186.18 43.5623 186.385 43.731C186.59 43.8923 186.917 44.05 187.364 44.204L187.859 44.369C188.174 44.479 188.46 44.6073 188.717 44.754C188.981 44.8933 189.205 45.062 189.388 45.26C189.579 45.458 189.722 45.6853 189.817 45.942C189.92 46.1913 189.971 46.481 189.971 46.811C189.971 47.2217 189.887 47.5773 189.718 47.878C189.557 48.1713 189.348 48.4133 189.091 48.604C188.834 48.7947 188.545 48.9377 188.222 49.033C187.899 49.1283 187.584 49.176 187.276 49.176Z" fill="black"/>
<rect x="0.5" y="0.5" width="212" height="60" stroke="#BDBDBD"/>
</svg>
